<svg xmlns="http://www.w3.org/2000/svg" xmlns:xlink="http://www.w3.org/1999/xlink" width="300" zoomAndPan="magnify" viewBox="0 0 224.87999 112.499997" height="150" preserveAspectRatio="xMidYMid meet" version="1.0"><defs><g/><clipPath id="45adf58017"><path d="M 166 25.996094 L 213 25.996094 L 213 73.78125 L 166 73.78125 Z M 166 25.996094 " clip-rule="nonzero"/></clipPath><clipPath id="d189a82fe0"><path d="M 193.074219 58.238281 C 196.050781 58.238281 197.375 60.71875 199.359375 62.703125 C 200.351562 63.695312 202.171875 63.695312 203.164062 62.703125 L 207.957031 57.910156 C 208.949219 56.917969 208.949219 55.097656 207.957031 54.105469 L 203.164062 49.308594 C 201.34375 47.492188 199.195312 46.332031 200.683594 45.175781 C 201.34375 44.679688 201.839844 44.347656 202.996094 44.347656 C 204.816406 44.347656 205.476562 45.835938 206.800781 46.996094 C 207.460938 47.65625 208.453125 47.65625 209.113281 46.996094 L 212.089844 44.019531 C 212.753906 43.355469 212.753906 42.363281 212.089844 41.703125 L 209.113281 38.726562 C 208.453125 38.066406 207.460938 38.066406 206.800781 38.726562 C 205.644531 39.882812 204.652344 41.539062 202.996094 41.539062 C 201.34375 41.539062 200.351562 39.882812 199.195312 38.726562 C 198.53125 38.066406 197.539062 38.066406 196.878906 38.726562 L 193.902344 41.703125 C 193.242188 42.363281 193.242188 43.355469 193.902344 44.019531 C 196.382812 46.5 200.515625 47.988281 198.53125 50.300781 C 197.042969 52.121094 195.390625 54.105469 193.074219 54.105469 C 190.265625 54.105469 188.609375 51.292969 186.625 49.308594 C 185.632812 48.316406 183.816406 48.316406 182.824219 49.308594 L 181.667969 50.46875 L 178.027344 54.105469 C 177.035156 55.097656 177.035156 56.917969 178.027344 57.910156 L 181.996094 61.875 L 182.824219 62.703125 C 183.816406 63.695312 185.632812 63.695312 186.625 62.703125 C 188.777344 60.554688 189.933594 58.238281 193.074219 58.238281 Z M 188.113281 39.554688 L 197.375 48.8125 C 196.21875 50.300781 194.5625 52.121094 193.074219 52.121094 C 191.089844 52.121094 189.105469 49.144531 187.785156 47.820312 C 186.128906 46.167969 183.320312 46.167969 181.5 47.820312 L 176.707031 52.617188 C 175.050781 54.269531 175.050781 57.082031 176.707031 58.902344 L 181.5 63.695312 C 183.15625 65.347656 185.964844 65.347656 187.785156 63.695312 C 189.273438 62.207031 190.761719 59.726562 193.074219 59.726562 C 194.894531 59.726562 196.21875 61.378906 197.375 62.867188 L 188.113281 72.128906 C 186.128906 74.113281 182.988281 74.113281 181.003906 72.128906 L 168.273438 59.398438 C 166.289062 57.414062 166.289062 54.269531 168.273438 52.285156 L 181.003906 39.554688 C 182.988281 37.570312 186.128906 37.570312 188.113281 39.554688 Z M 204.980469 29.796875 L 206.800781 31.617188 C 207.296875 32.113281 208.121094 32.113281 208.617188 31.617188 L 210.4375 29.796875 C 210.933594 29.300781 210.933594 28.476562 210.4375 27.980469 L 208.617188 26.160156 C 208.121094 25.664062 207.296875 25.664062 206.800781 26.160156 L 204.980469 27.980469 C 204.484375 28.476562 204.484375 29.300781 204.980469 29.796875 Z M 204.980469 29.796875 " clip-rule="evenodd"/></clipPath><linearGradient x1="0.115" gradientTransform="matrix(16.535506, 0, 0, 16.535506, 166.618906, 25.994819)" y1="3.025" x2="2.965" gradientUnits="userSpaceOnUse" y2="0.175" id="ecab15f068"><stop stop-opacity="1" stop-color="rgb(0%, 39.199829%, 60.398865%)" offset="0"/><stop stop-opacity="1" stop-color="rgb(0%, 39.199829%, 60.398865%)" offset="0.125"/><stop stop-opacity="1" stop-color="rgb(0%, 39.199829%, 60.398865%)" offset="0.15625"/><stop stop-opacity="1" stop-color="rgb(0%, 39.280701%, 60.450745%)" offset="0.171875"/><stop stop-opacity="1" stop-color="rgb(0%, 39.732361%, 60.746765%)" offset="0.175781"/><stop stop-opacity="1" stop-color="rgb(0%, 40.104675%, 60.98938%)" offset="0.179688"/><stop stop-opacity="1" stop-color="rgb(0%, 40.47699%, 61.230469%)" offset="0.183594"/><stop stop-opacity="1" stop-color="rgb(0%, 40.849304%, 61.473083%)" offset="0.1875"/><stop stop-opacity="1" stop-color="rgb(0%, 41.220093%, 61.715698%)" offset="0.191406"/><stop stop-opacity="1" stop-color="rgb(0%, 41.592407%, 61.958313%)" offset="0.195313"/><stop stop-opacity="1" stop-color="rgb(0%, 41.964722%, 62.199402%)" offset="0.199219"/><stop stop-opacity="1" stop-color="rgb(0%, 42.337036%, 62.442017%)" offset="0.203125"/><stop stop-opacity="1" stop-color="rgb(0%, 42.707825%, 62.684631%)" offset="0.207031"/><stop stop-opacity="1" stop-color="rgb(0%, 43.080139%, 62.927246%)" offset="0.210938"/><stop stop-opacity="1" stop-color="rgb(0%, 43.450928%, 63.168335%)" offset="0.214844"/><stop stop-opacity="1" stop-color="rgb(0%, 43.823242%, 63.41095%)" offset="0.21875"/><stop stop-opacity="1" stop-color="rgb(0%, 44.195557%, 63.653564%)" offset="0.222656"/><stop stop-opacity="1" stop-color="rgb(0%, 44.567871%, 63.896179%)" offset="0.226563"/><stop stop-opacity="1" stop-color="rgb(0%, 44.93866%, 64.137268%)" offset="0.230469"/><stop stop-opacity="1" stop-color="rgb(0%, 45.310974%, 64.379883%)" offset="0.234375"/><stop stop-opacity="1" stop-color="rgb(0%, 45.683289%, 64.622498%)" offset="0.238281"/><stop stop-opacity="1" stop-color="rgb(0%, 46.055603%, 64.865112%)" offset="0.242188"/><stop stop-opacity="1" stop-color="rgb(0%, 46.426392%, 65.106201%)" offset="0.246094"/><stop stop-opacity="1" stop-color="rgb(0%, 46.798706%, 65.348816%)" offset="0.25"/><stop stop-opacity="1" stop-color="rgb(0%, 47.171021%, 65.591431%)" offset="0.253906"/><stop stop-opacity="1" stop-color="rgb(0%, 47.543335%, 65.834045%)" offset="0.257813"/><stop stop-opacity="1" stop-color="rgb(0%, 47.914124%, 66.075134%)" offset="0.261719"/><stop stop-opacity="1" stop-color="rgb(0%, 48.286438%, 66.317749%)" offset="0.265625"/><stop stop-opacity="1" stop-color="rgb(0%, 48.658752%, 66.560364%)" offset="0.269531"/><stop stop-opacity="1" stop-color="rgb(0%, 49.031067%, 66.802979%)" offset="0.273438"/><stop stop-opacity="1" stop-color="rgb(0%, 49.401855%, 67.044067%)" offset="0.277344"/><stop stop-opacity="1" stop-color="rgb(0%, 49.77417%, 67.286682%)" offset="0.28125"/><stop stop-opacity="1" stop-color="rgb(0%, 50.146484%, 67.529297%)" offset="0.285156"/><stop stop-opacity="1" stop-color="rgb(0%, 50.518799%, 67.771912%)" offset="0.289063"/><stop stop-opacity="1" stop-color="rgb(0%, 50.889587%, 68.013%)" offset="0.292969"/><stop stop-opacity="1" stop-color="rgb(0%, 51.261902%, 68.255615%)" offset="0.296875"/><stop stop-opacity="1" stop-color="rgb(0%, 51.634216%, 68.49823%)" offset="0.300781"/><stop stop-opacity="1" stop-color="rgb(0%, 52.006531%, 68.740845%)" offset="0.304688"/><stop stop-opacity="1" stop-color="rgb(0%, 52.377319%, 68.981934%)" offset="0.308594"/><stop stop-opacity="1" stop-color="rgb(0%, 52.749634%, 69.224548%)" offset="0.3125"/><stop stop-opacity="1" stop-color="rgb(0%, 53.121948%, 69.467163%)" offset="0.316406"/><stop stop-opacity="1" stop-color="rgb(0%, 53.494263%, 69.709778%)" offset="0.320313"/><stop stop-opacity="1" stop-color="rgb(0%, 53.865051%, 69.950867%)" offset="0.324219"/><stop stop-opacity="1" stop-color="rgb(0%, 54.237366%, 70.193481%)" offset="0.328125"/><stop stop-opacity="1" stop-color="rgb(0%, 54.60968%, 70.436096%)" offset="0.332031"/><stop stop-opacity="1" stop-color="rgb(0%, 54.981995%, 70.678711%)" offset="0.335938"/><stop stop-opacity="1" stop-color="rgb(0%, 55.352783%, 70.9198%)" offset="0.339844"/><stop stop-opacity="1" stop-color="rgb(0%, 55.725098%, 71.162415%)" offset="0.34375"/><stop stop-opacity="1" stop-color="rgb(0%, 56.095886%, 71.405029%)" offset="0.347656"/><stop stop-opacity="1" stop-color="rgb(0%, 56.468201%, 71.647644%)" offset="0.351563"/><stop stop-opacity="1" stop-color="rgb(0%, 56.840515%, 71.888733%)" offset="0.355469"/><stop stop-opacity="1" stop-color="rgb(0%, 57.21283%, 72.131348%)" offset="0.359375"/><stop stop-opacity="1" stop-color="rgb(0%, 57.583618%, 72.373962%)" offset="0.363281"/><stop stop-opacity="1" stop-color="rgb(0%, 57.955933%, 72.616577%)" offset="0.367188"/><stop stop-opacity="1" stop-color="rgb(0%, 58.328247%, 72.857666%)" offset="0.371094"/><stop stop-opacity="1" stop-color="rgb(0%, 58.700562%, 73.100281%)" offset="0.375"/><stop stop-opacity="1" stop-color="rgb(0%, 59.07135%, 73.342896%)" offset="0.378906"/><stop stop-opacity="1" stop-color="rgb(0%, 59.443665%, 73.58551%)" offset="0.382813"/><stop stop-opacity="1" stop-color="rgb(0%, 59.815979%, 73.826599%)" offset="0.386719"/><stop stop-opacity="1" stop-color="rgb(0%, 60.188293%, 74.069214%)" offset="0.390625"/><stop stop-opacity="1" stop-color="rgb(0%, 60.559082%, 74.311829%)" offset="0.394531"/><stop stop-opacity="1" stop-color="rgb(0%, 60.931396%, 74.554443%)" offset="0.398438"/><stop stop-opacity="1" stop-color="rgb(0%, 61.303711%, 74.795532%)" offset="0.402344"/><stop stop-opacity="1" stop-color="rgb(0%, 61.676025%, 75.038147%)" offset="0.40625"/><stop stop-opacity="1" stop-color="rgb(0%, 62.046814%, 75.280762%)" offset="0.410156"/><stop stop-opacity="1" stop-color="rgb(0%, 62.419128%, 75.523376%)" offset="0.414063"/><stop stop-opacity="1" stop-color="rgb(0%, 62.791443%, 75.764465%)" offset="0.417969"/><stop stop-opacity="1" stop-color="rgb(0%, 63.163757%, 76.00708%)" offset="0.421875"/><stop stop-opacity="1" stop-color="rgb(0%, 63.534546%, 76.249695%)" offset="0.425781"/><stop stop-opacity="1" stop-color="rgb(0%, 63.90686%, 76.49231%)" offset="0.429688"/><stop stop-opacity="1" stop-color="rgb(0%, 64.279175%, 76.733398%)" offset="0.433594"/><stop stop-opacity="1" stop-color="rgb(0%, 64.651489%, 76.976013%)" offset="0.4375"/><stop stop-opacity="1" stop-color="rgb(0%, 65.022278%, 77.218628%)" offset="0.441406"/><stop stop-opacity="1" stop-color="rgb(0%, 65.394592%, 77.461243%)" offset="0.445313"/><stop stop-opacity="1" stop-color="rgb(0%, 65.766907%, 77.702332%)" offset="0.449219"/><stop stop-opacity="1" stop-color="rgb(0%, 66.139221%, 77.944946%)" offset="0.453125"/><stop stop-opacity="1" stop-color="rgb(0%, 66.51001%, 78.187561%)" offset="0.457031"/><stop stop-opacity="1" stop-color="rgb(0%, 66.882324%, 78.430176%)" offset="0.460938"/><stop stop-opacity="1" stop-color="rgb(0%, 67.253113%, 78.671265%)" offset="0.464844"/><stop stop-opacity="1" stop-color="rgb(0%, 67.625427%, 78.913879%)" offset="0.46875"/><stop stop-opacity="1" stop-color="rgb(0%, 67.997742%, 79.156494%)" offset="0.472656"/><stop stop-opacity="1" stop-color="rgb(0%, 68.370056%, 79.399109%)" offset="0.476563"/><stop stop-opacity="1" stop-color="rgb(0%, 68.740845%, 79.640198%)" offset="0.480469"/><stop stop-opacity="1" stop-color="rgb(0%, 69.113159%, 79.882812%)" offset="0.484375"/><stop stop-opacity="1" stop-color="rgb(0%, 69.485474%, 80.125427%)" offset="0.488281"/><stop stop-opacity="1" stop-color="rgb(0%, 69.857788%, 80.368042%)" offset="0.492188"/><stop stop-opacity="1" stop-color="rgb(0%, 70.228577%, 80.609131%)" offset="0.496094"/><stop stop-opacity="1" stop-color="rgb(0%, 70.600891%, 80.851746%)" offset="0.5"/><stop stop-opacity="1" stop-color="rgb(0%, 70.973206%, 81.09436%)" offset="0.503906"/><stop stop-opacity="1" stop-color="rgb(0%, 71.34552%, 81.336975%)" offset="0.507813"/><stop stop-opacity="1" stop-color="rgb(0%, 71.716309%, 81.578064%)" offset="0.511719"/><stop stop-opacity="1" stop-color="rgb(0%, 72.088623%, 81.820679%)" offset="0.515625"/><stop stop-opacity="1" stop-color="rgb(0%, 72.460938%, 82.063293%)" offset="0.519531"/><stop stop-opacity="1" stop-color="rgb(0%, 72.833252%, 82.305908%)" offset="0.523438"/><stop stop-opacity="1" stop-color="rgb(0%, 73.204041%, 82.546997%)" offset="0.527344"/><stop stop-opacity="1" stop-color="rgb(0%, 73.576355%, 82.789612%)" offset="0.53125"/><stop stop-opacity="1" stop-color="rgb(0%, 73.948669%, 83.032227%)" offset="0.535156"/><stop stop-opacity="1" stop-color="rgb(0%, 74.320984%, 83.274841%)" offset="0.539063"/><stop stop-opacity="1" stop-color="rgb(0%, 74.691772%, 83.51593%)" offset="0.542969"/><stop stop-opacity="1" stop-color="rgb(0%, 75.064087%, 83.758545%)" offset="0.546875"/><stop stop-opacity="1" stop-color="rgb(0%, 75.436401%, 84.00116%)" offset="0.550781"/><stop stop-opacity="1" stop-color="rgb(0%, 75.808716%, 84.243774%)" offset="0.554688"/><stop stop-opacity="1" stop-color="rgb(0%, 76.179504%, 84.484863%)" offset="0.558594"/><stop stop-opacity="1" stop-color="rgb(0%, 76.551819%, 84.727478%)" offset="0.5625"/><stop stop-opacity="1" stop-color="rgb(0%, 76.924133%, 84.970093%)" offset="0.566406"/><stop stop-opacity="1" stop-color="rgb(0%, 77.296448%, 85.212708%)" offset="0.570312"/><stop stop-opacity="1" stop-color="rgb(0%, 77.667236%, 85.453796%)" offset="0.574219"/><stop stop-opacity="1" stop-color="rgb(0%, 78.039551%, 85.696411%)" offset="0.578125"/><stop stop-opacity="1" stop-color="rgb(0%, 78.411865%, 85.939026%)" offset="0.582031"/><stop stop-opacity="1" stop-color="rgb(0%, 78.78418%, 86.181641%)" offset="0.585938"/><stop stop-opacity="1" stop-color="rgb(0%, 79.154968%, 86.422729%)" offset="0.589844"/><stop stop-opacity="1" stop-color="rgb(0%, 79.527283%, 86.665344%)" offset="0.59375"/><stop stop-opacity="1" stop-color="rgb(0%, 79.898071%, 86.907959%)" offset="0.597656"/><stop stop-opacity="1" stop-color="rgb(0%, 80.270386%, 87.150574%)" offset="0.601563"/><stop stop-opacity="1" stop-color="rgb(0%, 80.6427%, 87.391663%)" offset="0.605469"/><stop stop-opacity="1" stop-color="rgb(0%, 81.015015%, 87.634277%)" offset="0.609375"/><stop stop-opacity="1" stop-color="rgb(0%, 81.385803%, 87.876892%)" offset="0.613281"/><stop stop-opacity="1" stop-color="rgb(0%, 81.758118%, 88.119507%)" offset="0.617188"/><stop stop-opacity="1" stop-color="rgb(0%, 82.130432%, 88.360596%)" offset="0.621094"/><stop stop-opacity="1" stop-color="rgb(0%, 82.502747%, 88.60321%)" offset="0.625"/><stop stop-opacity="1" stop-color="rgb(0%, 82.873535%, 88.845825%)" offset="0.628906"/><stop stop-opacity="1" stop-color="rgb(0%, 83.24585%, 89.08844%)" offset="0.632813"/><stop stop-opacity="1" stop-color="rgb(0%, 83.618164%, 89.329529%)" offset="0.636719"/><stop stop-opacity="1" stop-color="rgb(0%, 83.990479%, 89.572144%)" offset="0.640625"/><stop stop-opacity="1" stop-color="rgb(0%, 84.361267%, 89.814758%)" offset="0.644531"/><stop stop-opacity="1" stop-color="rgb(0%, 84.733582%, 90.057373%)" offset="0.648438"/><stop stop-opacity="1" stop-color="rgb(0%, 85.105896%, 90.298462%)" offset="0.652344"/><stop stop-opacity="1" stop-color="rgb(0%, 85.47821%, 90.541077%)" offset="0.65625"/><stop stop-opacity="1" stop-color="rgb(0%, 85.848999%, 90.783691%)" offset="0.660156"/><stop stop-opacity="1" stop-color="rgb(0%, 86.221313%, 91.026306%)" offset="0.664063"/><stop stop-opacity="1" stop-color="rgb(0%, 86.593628%, 91.267395%)" offset="0.667969"/><stop stop-opacity="1" stop-color="rgb(0%, 86.965942%, 91.51001%)" offset="0.671875"/><stop stop-opacity="1" stop-color="rgb(0%, 87.336731%, 91.752625%)" offset="0.675781"/><stop stop-opacity="1" stop-color="rgb(0%, 87.709045%, 91.995239%)" offset="0.679688"/><stop stop-opacity="1" stop-color="rgb(0%, 88.08136%, 92.236328%)" offset="0.683594"/><stop stop-opacity="1" stop-color="rgb(0%, 88.453674%, 92.478943%)" offset="0.6875"/><stop stop-opacity="1" stop-color="rgb(0%, 88.824463%, 92.721558%)" offset="0.691406"/><stop stop-opacity="1" stop-color="rgb(0%, 89.196777%, 92.964172%)" offset="0.695313"/><stop stop-opacity="1" stop-color="rgb(0%, 89.569092%, 93.205261%)" offset="0.699219"/><stop stop-opacity="1" stop-color="rgb(0%, 89.941406%, 93.447876%)" offset="0.703125"/><stop stop-opacity="1" stop-color="rgb(0%, 90.312195%, 93.690491%)" offset="0.707031"/><stop stop-opacity="1" stop-color="rgb(0%, 90.684509%, 93.933105%)" offset="0.710938"/><stop stop-opacity="1" stop-color="rgb(0%, 91.055298%, 94.174194%)" offset="0.714844"/><stop stop-opacity="1" stop-color="rgb(0%, 91.427612%, 94.416809%)" offset="0.71875"/><stop stop-opacity="1" stop-color="rgb(0%, 91.799927%, 94.659424%)" offset="0.722656"/><stop stop-opacity="1" stop-color="rgb(0%, 92.172241%, 94.902039%)" offset="0.726563"/><stop stop-opacity="1" stop-color="rgb(0%, 92.54303%, 95.143127%)" offset="0.730469"/><stop stop-opacity="1" stop-color="rgb(0%, 92.915344%, 95.385742%)" offset="0.734375"/><stop stop-opacity="1" stop-color="rgb(0%, 93.287659%, 95.628357%)" offset="0.738281"/><stop stop-opacity="1" stop-color="rgb(0%, 93.659973%, 95.870972%)" offset="0.742188"/><stop stop-opacity="1" stop-color="rgb(0%, 94.030762%, 96.112061%)" offset="0.746094"/><stop stop-opacity="1" stop-color="rgb(0%, 94.403076%, 96.354675%)" offset="0.75"/><stop stop-opacity="1" stop-color="rgb(0%, 94.775391%, 96.59729%)" offset="0.753906"/><stop stop-opacity="1" stop-color="rgb(0%, 95.147705%, 96.839905%)" offset="0.757813"/><stop stop-opacity="1" stop-color="rgb(0%, 95.518494%, 97.080994%)" offset="0.761719"/><stop stop-opacity="1" stop-color="rgb(0%, 95.890808%, 97.323608%)" offset="0.765625"/><stop stop-opacity="1" stop-color="rgb(0%, 96.263123%, 97.566223%)" offset="0.769531"/><stop stop-opacity="1" stop-color="rgb(0%, 96.635437%, 97.808838%)" offset="0.773438"/><stop stop-opacity="1" stop-color="rgb(0%, 97.006226%, 98.049927%)" offset="0.777344"/><stop stop-opacity="1" stop-color="rgb(0%, 97.37854%, 98.292542%)" offset="0.78125"/><stop stop-opacity="1" stop-color="rgb(0%, 97.750854%, 98.535156%)" offset="0.785156"/><stop stop-opacity="1" stop-color="rgb(0%, 98.123169%, 98.777771%)" offset="0.789062"/><stop stop-opacity="1" stop-color="rgb(0%, 98.493958%, 99.01886%)" offset="0.792969"/><stop stop-opacity="1" stop-color="rgb(0%, 98.866272%, 99.261475%)" offset="0.796875"/><stop stop-opacity="1" stop-color="rgb(0%, 99.238586%, 99.504089%)" offset="0.800781"/><stop stop-opacity="1" stop-color="rgb(0%, 99.610901%, 99.746704%)" offset="0.804688"/><stop stop-opacity="1" stop-color="rgb(0%, 99.804688%, 99.873352%)" offset="0.8125"/><stop stop-opacity="1" stop-color="rgb(0%, 100%, 100%)" offset="0.875"/><stop stop-opacity="1" stop-color="rgb(0%, 100%, 100%)" offset="1"/></linearGradient></defs><g clip-path="url(#45adf58017)"><g clip-path="url(#d189a82fe0)"><path fill="url(#ecab15f068)" d="M 166.289062 25.996094 L 166.289062 73.78125 L 212.753906 73.78125 L 212.753906 25.996094 Z M 166.289062 25.996094 " fill-rule="nonzero"/></g></g><g fill="#00649a" fill-opacity="1"><g transform="translate(47.961405, 67.208477)"><g><path d="M 2.96875 0.34375 C 2.5 0.34375 2 0.296875 1.46875 0.203125 C 0.945312 0.109375 0.550781 -0.00390625 0.28125 -0.140625 L 0.28125 -3.125 C 0.507812 -3.019531 0.796875 -2.9375 1.140625 -2.875 C 1.492188 -2.8125 1.84375 -2.78125 2.1875 -2.78125 C 2.875 -2.78125 3.382812 -2.941406 3.71875 -3.265625 C 4.0625 -3.585938 4.234375 -4.09375 4.234375 -4.78125 L 4.234375 -15.984375 L 7.703125 -15.984375 L 7.703125 -4.453125 C 7.703125 -2.972656 7.289062 -1.800781 6.46875 -0.9375 C 5.644531 -0.0820312 4.476562 0.34375 2.96875 0.34375 Z M 2.96875 0.34375 "/></g></g></g><g fill="#00649a" fill-opacity="1"><g transform="translate(62.657443, 67.208477)"><g><path d="M 7.34375 0.34375 C 6.007812 0.34375 4.84375 0.101562 3.84375 -0.375 C 2.851562 -0.851562 2.085938 -1.53125 1.546875 -2.40625 C 1.003906 -3.28125 0.734375 -4.304688 0.734375 -5.484375 C 0.734375 -6.628906 1.003906 -7.644531 1.546875 -8.53125 C 2.085938 -9.414062 2.851562 -10.097656 3.84375 -10.578125 C 4.84375 -11.066406 6.007812 -11.3125 7.34375 -11.3125 C 8.644531 -11.3125 9.796875 -11.066406 10.796875 -10.578125 C 11.796875 -10.097656 12.566406 -9.414062 13.109375 -8.53125 C 13.648438 -7.644531 13.921875 -6.628906 13.921875 -5.484375 C 13.921875 -4.304688 13.648438 -3.28125 13.109375 -2.40625 C 12.566406 -1.53125 11.800781 -0.851562 10.8125 -0.375 C 9.820312 0.101562 8.664062 0.34375 7.34375 0.34375 Z M 7.34375 -2.359375 C 8.269531 -2.359375 9.003906 -2.640625 9.546875 -3.203125 C 10.097656 -3.773438 10.375 -4.535156 10.375 -5.484375 C 10.375 -6.460938 10.101562 -7.226562 9.5625 -7.78125 C 9.019531 -8.34375 8.28125 -8.625 7.34375 -8.625 C 6.394531 -8.625 5.644531 -8.34375 5.09375 -7.78125 C 4.550781 -7.226562 4.28125 -6.460938 4.28125 -5.484375 C 4.28125 -4.535156 4.554688 -3.773438 5.109375 -3.203125 C 5.660156 -2.640625 6.40625 -2.359375 7.34375 -2.359375 Z M 7.34375 -2.359375 "/></g></g></g><g fill="#00649a" fill-opacity="1"><g transform="translate(83.179216, 67.208477)"><g><path d="M 1.1875 -15.984375 L 9.03125 -15.984375 C 10.539062 -15.984375 11.722656 -15.609375 12.578125 -14.859375 C 13.429688 -14.109375 13.859375 -13.023438 13.859375 -11.609375 C 13.859375 -10.890625 13.6875 -10.238281 13.34375 -9.65625 C 13.007812 -9.070312 12.554688 -8.617188 11.984375 -8.296875 C 12.773438 -8.003906 13.367188 -7.566406 13.765625 -6.984375 C 14.160156 -6.398438 14.359375 -5.632812 14.359375 -4.6875 C 14.359375 -3.726562 14.140625 -2.894531 13.703125 -2.1875 C 13.265625 -1.476562 12.671875 -0.9375 11.921875 -0.5625 C 11.171875 -0.1875 10.335938 0 9.421875 0 L 1.1875 0 Z M 8.359375 -9.484375 C 8.972656 -9.484375 9.453125 -9.632812 9.796875 -9.9375 C 10.148438 -10.25 10.328125 -10.738281 10.328125 -11.40625 C 10.328125 -12.132812 10.15625 -12.632812 9.8125 -12.90625 C 9.46875 -13.1875 8.945312 -13.328125 8.25 -13.328125 L 4.65625 -13.328125 L 4.65625 -9.484375 Z M 8.578125 -2.65625 C 9.316406 -2.65625 9.878906 -2.800781 10.265625 -3.09375 C 10.660156 -3.394531 10.859375 -3.914062 10.859375 -4.65625 C 10.859375 -5.425781 10.65625 -5.976562 10.25 -6.3125 C 9.84375 -6.644531 9.242188 -6.8125 8.453125 -6.8125 L 4.65625 -6.8125 L 4.65625 -2.65625 Z M 8.578125 -2.65625 "/></g></g></g><g fill="#00649a" fill-opacity="1"><g transform="translate(104.135063, 67.208477)"><g><path d="M 5.28125 0.34375 C 3.9375 0.34375 2.84375 0.00390625 2 -0.671875 C 1.15625 -1.347656 0.734375 -2.273438 0.734375 -3.453125 C 0.734375 -4.671875 1.132812 -5.617188 1.9375 -6.296875 C 2.75 -6.972656 3.894531 -7.3125 5.375 -7.3125 C 6.03125 -7.3125 6.65625 -7.242188 7.25 -7.109375 C 7.84375 -6.972656 8.367188 -6.78125 8.828125 -6.53125 L 8.828125 -6.8125 C 8.828125 -7.5 8.582031 -8 8.09375 -8.3125 C 7.601562 -8.632812 6.859375 -8.796875 5.859375 -8.796875 C 4.515625 -8.796875 3.28125 -8.546875 2.15625 -8.046875 L 2.15625 -10.5625 C 2.632812 -10.769531 3.265625 -10.945312 4.046875 -11.09375 C 4.828125 -11.238281 5.601562 -11.3125 6.375 -11.3125 C 8.351562 -11.3125 9.832031 -10.90625 10.8125 -10.09375 C 11.789062 -9.28125 12.28125 -8.140625 12.28125 -6.671875 L 12.28125 0 L 9.03125 0 L 9.03125 -1 C 8.101562 -0.101562 6.851562 0.34375 5.28125 0.34375 Z M 6.21875 -1.9375 C 6.78125 -1.9375 7.289062 -2.039062 7.75 -2.25 C 8.207031 -2.46875 8.566406 -2.769531 8.828125 -3.15625 L 8.828125 -4.25 C 8.046875 -4.769531 7.191406 -5.03125 6.265625 -5.03125 C 5.617188 -5.03125 5.125 -4.894531 4.78125 -4.625 C 4.445312 -4.363281 4.28125 -3.972656 4.28125 -3.453125 C 4.28125 -2.960938 4.445312 -2.585938 4.78125 -2.328125 C 5.113281 -2.066406 5.59375 -1.9375 6.21875 -1.9375 Z M 6.21875 -1.9375 "/></g></g></g><g fill="#00649a" fill-opacity="1"><g transform="translate(123.354597, 67.208477)"><g><path d="M 5.6875 0.34375 C 4.863281 0.34375 3.984375 0.253906 3.046875 0.078125 C 2.109375 -0.0976562 1.375 -0.34375 0.84375 -0.65625 L 0.84375 -3.359375 C 1.457031 -2.992188 2.191406 -2.695312 3.046875 -2.46875 C 3.898438 -2.238281 4.691406 -2.125 5.421875 -2.125 C 6.046875 -2.125 6.5 -2.175781 6.78125 -2.28125 C 7.070312 -2.394531 7.21875 -2.59375 7.21875 -2.875 C 7.21875 -3.101562 7.132812 -3.289062 6.96875 -3.4375 C 6.800781 -3.582031 6.546875 -3.710938 6.203125 -3.828125 C 5.859375 -3.941406 5.289062 -4.113281 4.5 -4.34375 C 3.570312 -4.613281 2.84375 -4.890625 2.3125 -5.171875 C 1.789062 -5.453125 1.394531 -5.804688 1.125 -6.234375 C 0.863281 -6.660156 0.734375 -7.210938 0.734375 -7.890625 C 0.734375 -9.023438 1.1875 -9.878906 2.09375 -10.453125 C 3 -11.023438 4.226562 -11.3125 5.78125 -11.3125 C 6.539062 -11.3125 7.328125 -11.226562 8.140625 -11.0625 C 8.960938 -10.90625 9.59375 -10.703125 10.03125 -10.453125 L 10.03125 -7.8125 C 9.59375 -8.101562 9.019531 -8.335938 8.3125 -8.515625 C 7.601562 -8.703125 6.910156 -8.796875 6.234375 -8.796875 C 5.609375 -8.796875 5.125 -8.734375 4.78125 -8.609375 C 4.445312 -8.492188 4.28125 -8.269531 4.28125 -7.9375 C 4.28125 -7.644531 4.441406 -7.421875 4.765625 -7.265625 C 5.085938 -7.117188 5.703125 -6.929688 6.609375 -6.703125 L 7.0625 -6.578125 C 8.019531 -6.316406 8.765625 -6.03125 9.296875 -5.71875 C 9.835938 -5.40625 10.21875 -5.03125 10.4375 -4.59375 C 10.65625 -4.164062 10.765625 -3.625 10.765625 -2.96875 C 10.765625 -1.96875 10.328125 -1.164062 9.453125 -0.5625 C 8.585938 0.0390625 7.332031 0.34375 5.6875 0.34375 Z M 5.6875 0.34375 "/></g></g></g><g fill="#00649a" fill-opacity="1"><g transform="translate(140.723615, 67.208477)"><g><path d="M 7.5 0.34375 C 5.394531 0.34375 3.738281 -0.160156 2.53125 -1.171875 C 1.332031 -2.191406 0.734375 -3.613281 0.734375 -5.4375 C 0.734375 -7.25 1.269531 -8.679688 2.34375 -9.734375 C 3.414062 -10.785156 4.953125 -11.3125 6.953125 -11.3125 C 8.265625 -11.3125 9.375 -11.066406 10.28125 -10.578125 C 11.195312 -10.097656 11.890625 -9.425781 12.359375 -8.5625 C 12.835938 -7.695312 13.078125 -6.722656 13.078125 -5.640625 L 13.078125 -4.25 L 4.015625 -4.25 C 4.265625 -2.851562 5.578125 -2.15625 7.953125 -2.15625 C 8.648438 -2.15625 9.375 -2.210938 10.125 -2.328125 C 10.875 -2.453125 11.519531 -2.617188 12.0625 -2.828125 L 12.0625 -0.40625 C 11.53125 -0.175781 10.84375 0.00390625 10 0.140625 C 9.164062 0.273438 8.332031 0.34375 7.5 0.34375 Z M 9.8125 -6.484375 C 9.757812 -7.222656 9.484375 -7.789062 8.984375 -8.1875 C 8.484375 -8.59375 7.789062 -8.796875 6.90625 -8.796875 C 6.03125 -8.796875 5.34375 -8.585938 4.84375 -8.171875 C 4.34375 -7.765625 4.066406 -7.203125 4.015625 -6.484375 Z M 9.8125 -6.484375 "/></g></g></g></svg>